<?xml version="1.0" encoding="iso-8859-1"?>
<!-- Generator: Adobe Illustrator 19.0.0, SVG Export Plug-In . SVG Version: 6.00 Build 0)  -->
<svg version="1.1" id="Capa_1" xmlns="http://www.w3.org/2000/svg" xmlns:xlink="http://www.w3.org/1999/xlink" x="0px" y="0px"
	 viewBox="0 0 496 496" style="enable-background:new 0 0 496 496;" xml:space="preserve">
<g>
	<g>
		<g>
			<path d="M412.256,435.192l-1.904-1.424C398.856,425.152,392,411.424,392,397.056v-11.368c0-8.392,4.168-16.184,11.152-20.84
				c8.048-5.368,12.848-14.336,12.848-24C416,324.936,403.064,312,387.152,312h-38.728c-6.848,0-12.424-5.576-12.424-12.432
				c0-4.344,2.312-8.432,6.04-10.664l13.416-8.056C368.128,273.256,376,259.36,376,244.576v-13.352
				c0-10.816,6.488-20.408,16.536-24.424C406.792,201.104,416,187.504,416,172.152v-1.528c0-8.992-3.504-17.44-9.856-23.8
				C402.24,142.92,400,137.52,400,132s2.24-10.92,6.144-14.832l0.888-0.888c5.784-5.784,8.968-13.472,8.968-21.656
				C416,77.744,402.256,64,385.376,64c-8.936,0-17.68-3.624-24-9.936l-3.72-3.72C346,38.688,329.856,32,313.376,32h-14.064
				l-2.92-2.92C287.96,20.64,276.744,16,264.816,16c-18.368,0-34.64,11.016-41.608,28.432C220.4,51.464,213.688,56,206.128,56
				c-6.168,0-11.88-3.064-15.304-8.192C184.216,37.904,173.176,32,161.28,32h-4.336l-8.424-16.84C143.848,5.808,134.456,0,123.416,0
				C108.296,0,96,12.296,96,27.416c0,4.224,1,8.472,2.888,12.264l19.56,39.112c1.016,2.024,1.552,4.296,1.552,6.552v4.032
				C120,97.44,113.44,104,105.376,104c-8.184,0-15.872,3.184-21.656,8.968L68.688,128h-0.912C52.464,128,40,140.464,40,155.776
				c0,10.584,5.88,20.112,15.36,24.848l5.24,2.616c7.032,3.52,11.4,10.592,11.4,18.448c0,6.456-3.088,12.624-8.24,16.496l-6.56,4.92
				c-10.768,8.072-17.2,20.936-17.2,34.4c0,11.488,4.472,22.288,12.592,30.408l3.408,3.4v0.408C56,311.728,72.272,328,92.28,328
				c5.424,0,10.512,2.112,14.344,5.936l15.44,15.44c6.848,6.848,15.96,10.624,25.656,10.624H152h11.72
				c11.176,0,20.28,9.104,20.28,20.28c0,5.424-2.112,10.512-5.936,14.344l-29.784,29.784c-7.92,7.92-12.28,18.448-12.28,29.656
				c0,23.12,18.816,41.936,41.936,41.936h2.752c9.016,0,17.952-2.976,25.168-8.392l12.256-9.184
				c5.512-4.144,12.36-6.424,19.256-6.424h2.016c8.576,0,16.64,3.344,22.712,9.408c9.4,9.416,21.92,14.592,35.232,14.592
				c11.264,0,22.32-3.872,31.136-10.92l18.856-15.088c2.848-2.288,6.872-2.328,9.8-0.16l16.4,12.296
				c5.032,3.784,11.288,5.872,17.592,5.872h3.552C410.84,488,424,474.84,424,458.664C424,449.48,419.616,440.712,412.256,435.192z
				 M394.664,472h-3.552c-2.864,0-5.704-0.944-8-2.664l-16.4-12.296c-8.752-6.56-20.84-6.4-29.392,0.464l-18.848,15.088
				c-5.992,4.776-13.496,7.408-21.144,7.408c-9.04,0-17.528-3.512-23.92-9.904C264.32,461.008,252.232,456,239.384,456h-2.016
				c-10.344,0-20.592,3.424-28.856,9.624l-12.248,9.192c-4.464,3.344-10,5.184-15.576,5.184h-2.752
				C163.632,480,152,468.368,152,454.064c0-6.928,2.696-13.448,7.592-18.344l29.784-29.784c6.848-6.848,10.624-15.96,10.624-25.656
				c0-18.544-14.032-33.704-32-35.848V344h-4.28H152h-4.28c-5.424,0-10.512-2.112-14.344-5.936l-15.44-15.44
				C111.088,315.776,101.976,312,92.28,312C81.104,312,72,302.896,72,291.72v-7.032l-8.096-8.096
				C58.88,271.568,56,264.608,56,257.504c0-8.456,4.04-16.528,10.8-21.6l6.56-4.912C82.528,224.112,88,213.16,88,201.696
				c0-13.96-7.76-26.504-20.248-32.76l-5.24-2.616C58.488,164.304,56,160.264,56,155.776C56,149.28,61.28,144,67.776,144h7.536
				l19.72-19.72c2.72-2.72,6.488-4.28,10.344-4.28C122.256,120,136,106.256,136,89.376v-4.032c0-4.72-1.12-9.456-3.232-13.704
				L113.2,32.528c-0.784-1.584-1.2-3.344-1.2-5.112C112,21.12,117.12,16,124,16c4.352,0,8.264,2.424,10.208,6.312L147.056,48h14.224
				c6.536,0,12.6,3.24,16.224,8.68C183.904,66.272,194.6,72,206.128,72c14.144,0,26.68-8.488,32.088-21.984
				C242.584,39.072,253.032,32,264.816,32c7.648,0,14.848,2.976,20.256,8.392L292.688,48h20.688
				c12.272,0,24.288,4.976,32.968,13.656l3.72,3.72C359.36,74.672,372.224,80,385.376,80C393.44,80,400,86.56,400,94.624
				c0,3.848-1.56,7.624-4.28,10.344l-0.888,0.888C387.944,112.744,384,122.264,384,132c0,9.736,3.944,19.256,10.824,26.144
				c3.336,3.336,5.176,7.768,5.176,12.48v1.528c0,8.776-5.256,16.536-13.4,19.8c-16.16,6.456-26.6,21.88-26.6,39.272v13.352
				c0,9.184-4.888,17.832-12.776,22.552l-13.424,8.056c-8.512,5.112-13.8,14.456-13.8,24.384c0,15.68,12.752,28.432,28.432,28.432
				h38.728c7.08,0,12.84,5.76,12.84,12.84c0,4.304-2.144,8.296-5.72,10.688c-11.448,7.64-18.28,20.408-18.28,34.16v11.368
				c0,19.376,9.248,37.888,24.768,49.52l1.904,1.424c3.336,2.504,5.328,6.496,5.328,10.664C408,466.016,402.016,472,394.664,472z"/>
			<path d="M436,0h-44.584c-7.608,0-14.472,4.232-17.888,11.056l-3.424,6.856c-1.376,2.76-2.104,5.848-2.104,8.92V36
				c0,11.032,8.968,20,20,20h15.032c5.264,0,10.416-2.136,14.144-5.856l8.968-8.968c0.736-0.744,1.768-1.176,2.824-1.176H436
				c11.032,0,20-8.968,20-20S447.032,0,436,0z M436,24h-7.032c-5.264,0-10.416,2.136-14.144,5.856l-8.968,8.968
				C405.12,39.568,404.088,40,403.032,40H388c-2.2,0-4-1.8-4-4v-9.168c0-0.616,0.152-1.24,0.424-1.792l3.408-6.832
				c0.672-1.336,2.08-2.208,3.584-2.208H436c2.2,0,4,1.8,4,4S438.2,24,436,24z"/>
			<path d="M234.336,112h-4.672C182.432,112,144,150.432,144,197.664c0,13.24,3.136,26.496,9.048,38.312l48.64,97.288
				C207.464,344.824,219.08,352,232,352s24.536-7.176,30.312-18.736l48.64-97.288c5.912-11.816,9.048-25.072,9.048-38.312
				C320,150.432,281.568,112,234.336,112z M296.64,228.824L248,326.112c-3.048,6.096-9.184,9.888-16,9.888
				c-6.824,0-12.952-3.792-16-9.888l-48.64-97.288c-4.816-9.624-7.36-20.392-7.36-31.16C160,159.248,191.248,128,229.664,128h4.672
				C272.752,128,304,159.248,304,197.664C304,208.432,301.456,219.2,296.64,228.824z"/>
			<path d="M232,152c-26.472,0-48,21.528-48,48s21.528,48,48,48s48-21.528,48-48S258.472,152,232,152z M232,232
				c-17.648,0-32-14.352-32-32s14.352-32,32-32s32,14.352,32,32S249.648,232,232,232z"/>
			<rect x="336" y="96" width="16" height="16"/>
			<rect x="96" y="136" width="16" height="16"/>
			<rect x="128" y="272" width="16" height="16"/>
			<rect x="216" y="408" width="16" height="16"/>
			<rect x="328" y="376" width="16" height="16"/>
		</g>
	</g>
</g>
<g>
</g>
<g>
</g>
<g>
</g>
<g>
</g>
<g>
</g>
<g>
</g>
<g>
</g>
<g>
</g>
<g>
</g>
<g>
</g>
<g>
</g>
<g>
</g>
<g>
</g>
<g>
</g>
<g>
</g>
</svg>
