<svg id="Capa_1" enable-background="new 0 0 512 512" height="512" viewBox="0 0 512 512" width="512" xmlns="http://www.w3.org/2000/svg"><g><path d="m226 512h60c8.284 0 15-6.716 15-15v-112.25c85.299-20.226 150-97.053 150-189.75 0-107.523-87.477-195-195-195-107.477 0-195 87.435-195 195 0 92.04 64.1 169.38 150 189.75v112.25c0 8.284 6.716 15 15 15zm45-30h-30v-92.571c4.951.378 9.953.571 15 .571s10.049-.193 15-.571zm150-287c0 40.102-14.386 76.902-38.26 105.527l-42.873-42.874c3.957-10.127 6.133-21.14 6.133-32.653 0-30.728-6.052-34.564-77.009-157.499-2.679-4.641-7.631-7.501-12.991-7.501-5.359 0-10.312 2.86-12.991 7.501-12.753 22.095-22.526 38.829-34.303 58.991l-58.233-58.232c28.625-23.874 65.426-38.26 105.527-38.26 90.981 0 165 74.019 165 165zm-205.918-19.705 87.485 87.485c-11.01 13.545-27.792 22.22-46.567 22.22-33.084 0-60-26.916-60-60 0-13.066.676-17.423 19.082-49.705zm15.557-26.869c7.303-12.515 14.862-25.413 25.36-43.488 57.734 99.45 60.001 100.465 60.001 120.062 0 2.787-.207 5.524-.576 8.211zm-139.639 46.574c0-40.102 14.386-76.902 38.26-105.527l63.84 63.841c-24.192 41.971-27.1 50.408-27.1 71.686 0 49.626 40.374 90 90 90 27.044 0 51.339-11.992 67.851-30.937l37.676 37.677c-28.625 23.874-65.426 38.26-105.527 38.26-90.981 0-165-74.019-165-165z"/></g></svg>