<?xml version="1.0"?>
<svg xmlns="http://www.w3.org/2000/svg" id="outline" viewBox="0 0 512 512" width="512" height="512"><path fill="#ff8400"  d="M426.25,168h-28.5A21.775,21.775,0,0,0,376,189.75v12.5A21.775,21.775,0,0,0,397.75,224h28.5A21.775,21.775,0,0,0,448,202.25v-12.5A21.775,21.775,0,0,0,426.25,168ZM432,202.25a5.756,5.756,0,0,1-5.75,5.75h-28.5a5.756,5.756,0,0,1-5.75-5.75v-12.5a5.756,5.756,0,0,1,5.75-5.75h28.5a5.756,5.756,0,0,1,5.75,5.75Z"/><path fill="#ff8400" d="M448,400H336V256H447.939A32.1,32.1,0,0,0,480,223.939V96.061A32.1,32.1,0,0,0,447.939,64H336v-.074A47.981,47.981,0,0,0,288.074,16H64A48.055,48.055,0,0,0,16,64v88a8,8,0,0,0,8,8H96V448a48.055,48.055,0,0,0,48,48H319.491a48.578,48.578,0,0,0,47.747-40H488a8,8,0,0,0,8-8A48.055,48.055,0,0,0,448,400Zm-.061-160H224.061A16.079,16.079,0,0,1,208,223.939V144H464v79.939A16.079,16.079,0,0,1,447.939,240ZM208,112H464v16H208ZM464,96H208a16.078,16.078,0,0,1,16.058-16H447.939A16.078,16.078,0,0,1,464,96ZM32,64a32,32,0,0,1,64,0v80H32Zm80,384V64A47.806,47.806,0,0,0,99.739,32H288.074A31.962,31.962,0,0,1,320,63.926V64H224.061A32.1,32.1,0,0,0,192,96.061V223.939A32.1,32.1,0,0,0,224.061,256H320V400H224a48.055,48.055,0,0,0-48,48,32,32,0,0,1-64,0Zm207.491,32H179.739A47.806,47.806,0,0,0,192,448a32,32,0,0,1,64,0,8,8,0,0,0,8,8h86.863A32.561,32.561,0,0,1,319.491,480Zm-48.158-40a47.875,47.875,0,0,0-11.585-24H448a32.057,32.057,0,0,1,30.988,24Z"/><path fill="#ff8400"  d="M136,216h32a8,8,0,0,0,8-8V176a8,8,0,0,0-8-8H136a8,8,0,0,0-8,8v32A8,8,0,0,0,136,216Zm8-32h16v16H144Z"/><path fill="#ff8400" d="M136,304h32a8,8,0,0,0,8-8V264a8,8,0,0,0-8-8H136a8,8,0,0,0-8,8v32A8,8,0,0,0,136,304Zm8-32h16v16H144Z"/><path fill="#ff8400" d="M176,384V352a8,8,0,0,0-8-8H136a8,8,0,0,0-8,8v32a8,8,0,0,0,8,8h32A8,8,0,0,0,176,384Zm-16-8H144V360h16Z"/><rect fill="#ff8400" x="192" y="360" width="112" height="16"/><rect fill="#ff8400" x="192" y="272" width="112" height="16"/></svg>
