<?xml version="1.0" encoding="iso-8859-1"?>
<!-- Generator: Adobe Illustrator 19.0.0, SVG Export Plug-In . SVG Version: 6.00 Build 0)  -->
<svg version="1.1" id="Capa_1" xmlns="http://www.w3.org/2000/svg" xmlns:xlink="http://www.w3.org/1999/xlink" x="0px" y="0px"
	 viewBox="0 0 512.001 512.001" style="enable-background:new 0 0 512.001 512.001;" xml:space="preserve">
<g>
	<g>
		<path fill="#cfd3da" d="M504.274,59.815l-58.501-33.772c-7.391-4.27-16.841-1.736-21.105,5.656c-4.268,7.39-1.735,16.84,5.655,21.105
			l35.328,20.395l-45.171,26.08l-156.752-90.5c-4.781-2.761-10.671-2.761-15.451,0L91.525,99.279L46.358,73.202l35.319-20.389
			c7.39-4.267,9.923-13.716,5.655-21.105c-4.268-7.393-13.719-9.924-21.105-5.656L7.726,59.822C2.945,62.581,0,67.682,0,73.203
			l0.002,67.55c0,8.534,6.918,15.451,15.451,15.451c8.534,0,15.451-6.918,15.451-15.451l-0.001-40.791l45.17,26.078v181.003
			c0,5.52,2.945,10.621,7.726,13.381l156.752,90.5v52.154l-35.316-20.392c-7.39-4.267-16.84-1.736-21.107,5.654
			c-4.268,7.391-1.736,16.841,5.654,21.107l58.498,33.777c2.391,1.38,5.059,2.07,7.727,2.07c2.668,0,5.336-0.69,7.726-2.07
			l58.499-33.777c7.391-4.268,9.923-13.717,5.655-21.106c-4.268-7.391-13.717-9.92-21.107-5.655l-35.326,20.397v-52.158
			l156.752-90.5c4.781-2.761,7.726-7.861,7.726-13.381V126.041l45.166-26.076l-0.001,40.782c0,8.533,6.917,15.451,15.451,15.451
			c8.532,0,15.451-6.918,15.451-15.451l0.002-67.55C512,67.675,509.054,62.574,504.274,59.815z M240.551,375.24l-133.576-77.119
			v-154.24l133.576,77.12V375.24z M256.002,194.239L122.427,117.12L256.002,40l133.575,77.12L256.002,194.239z M405.028,298.121
			L271.453,375.24V221.002l133.576-77.12V298.121z"/>
	</g>
</g>
<g>
</g>
<g>
</g>
<g>
</g>
<g>
</g>
<g>
</g>
<g>
</g>
<g>
</g>
<g>
</g>
<g>
</g>
<g>
</g>
<g>
</g>
<g>
</g>
<g>
</g>
<g>
</g>
<g>
</g>
</svg>
